:FULLY-SPECIFIED
:FORCE-ALL-JOINTS-BE-3DOF
:DEGREES
747
root 4.1496 16.8679 14.5064 -163.782 -9.00572 -171.102
lfemur -32.0166 3.04852 -14.2289
ltibia 42.695 -0 0
lfoot -20.5732 0.123585 -1.4185
ltoes 9.65862 -0 0
rfemur -26.9292 -32.5673 10.3174
rtibia 107.771 -0 0
rfoot 22.4108 4.48848 -0.28156
rtoes 26.2946 -0 0
lowerback 2.833 6.67031 -1.95003
upperback -1.16368 8.81892 -2.01523
thorax -2.70744 4.42577 -1.42716
lowerneck -6.57271 -8.58144 -1.69174
upperneck -2.22025 -11.5568 5.72344
head 0.873467 -5.81555 1.72744
lclavicle 2.08724e-14 -3.73715e-14 0
lhumerus -53.623 -9.6302 74.3935
lradius 51.1671 -0 0
lwrist 15.931 0 0
lhand -28.0051 -5.47406 0.03713
lfingers 7.12502 -0 0
lthumb -1.39083 24.4771 0.0358094
rclavicle 2.08724e-14 -3.73715e-14 0
rhumerus 23.8284 40.0689 -67.0645
rradius 92.2966 -0 0
rwrist 0.450055 0 0
rhand -21.2068 -21.2264 0.429652
rfingers 7.12502 -0 0
rthumb 5.17302 -51.0445 0.420498
748
root 4.10772 16.7062 14.6977 -163.773 -6.80191 -171.235
lfemur -33.5523 4.95323 -15.5177
ltibia 45.825 -0 0
lfoot -23.2897 1.70751 -1.25716
ltoes 9.14866 -0 0
rfemur -27.016 -32.5811 12.2295
rtibia 105.662 -0 0
rfoot 21.1712 3.39946 -0.291145
rtoes 26.0841 -0 0
lowerback 3.13955 6.48564 -2.35704
upperback -0.991392 8.55123 -2.12112
thorax -2.74882 4.30027 -1.32926
lowerneck -6.39836 -8.67224 -1.77035
upperneck -2.26717 -11.6819 6.03596
head 0.859383 -5.8807 1.8404
lclavicle 2.08724e-14 -3.73715e-14 0
lhumerus -52.7459 -9.19052 76.8667
lradius 51.4772 -0 0
lwrist 15.392 0 0
lhand -28.5887 -5.63323 0.0319704
lfingers 7.12502 -0 0
lthumb -1.95447 24.319 0.0308723
rclavicle 2.08724e-14 -3.73715e-14 0
rhumerus 20.7264 42.6157 -70.4295
rradius 92.4861 -0 0
rwrist 1.34502 0 0
rhand -20.1245 -20.1327 0.376304
rfingers 7.12502 -0 0
rthumb 6.21807 -49.9345 0.368293
749
root 4.06259 16.5545 14.8844 -163.763 -4.51487 -171.348
lfemur -35.0595 6.77756 -16.7873
ltibia 48.7851 -0 0
lfoot -25.8374 3.26455 -1.04333
ltoes 8.75934 -0 0
rfemur -27.0558 -32.5795 14.0463
rtibia 103.547 -0 0
rfoot 19.9097 2.24121 -0.286239
rtoes 25.7564 -0 0
lowerback 3.41966 6.30802 -2.73475
upperback -0.832353 8.29245 -2.22799
thorax -2.78471 4.17852 -1.24577
lowerneck -6.23136 -8.75274 -1.84398
upperneck -2.30745 -11.7921 6.32448
head 0.846235 -5.93772 1.94511
lclavicle 2.08724e-14 -3.73715e-14 0
lhumerus -51.9079 -8.83494 79.2164
lradius 51.8337 -0 0
lwrist 14.8965 0 0
lhand -29.1009 -5.78206 0.0255465
lfingers 7.12502 -0 0
lthumb -2.4491 24.171 0.0247102
rclavicle 2.08724e-14 -3.73715e-14 0
rhumerus 17.3948 44.9048 -73.938
rradius 92.6154 -0 0
rwrist 2.20087 0 0
rhand -19.0969 -19.1151 0.306811
rfingers 7.12502 -0 0
rthumb 7.21032 -48.9011 0.30029
750
root 4.01359 16.4145 15.0659 -163.75 -2.12411 -171.433
lfemur -36.5028 8.50277 -18.0119
ltibia 51.502 -0 0
lfoot -28.1646 4.77924 -0.791417
ltoes 8.51105 -0 0
rfemur -27.0366 -32.5749 15.734
rtibia 101.444 -0 0
rfoot 18.6372 1.02853 -0.26158
rtoes 25.2816 -0 0
lowerback 3.66311 6.14325 -3.07241
upperback -0.691054 8.05175 -2.33453
thorax -2.81258 4.06487 -1.18088
lowerneck -6.0751 -8.82061 -1.90977
upperneck -2.33929 -11.8842 6.58079
head 0.834293 -5.9848 2.03852
lclavicle 2.08724e-14 -3.73715e-14 0
lhumerus -51.1518 -8.55632 81.4098
lradius 52.2448 -0 0
lwrist 14.4564 0 0
lhand -29.5226 -5.91731 0.0184534
lfingers 7.12502 -0 0
lthumb -2.85641 24.0364 0.0178893
rclavicle 2.08724e-14 -3.73715e-14 0
rhumerus 13.9282 46.9082 -77.5068
rradius 92.667 -0 0
rwrist 3.00437 0 0
rhand -18.1472 -18.1979 0.227034
rfingers 7.12502 -0 0
rthumb 8.12724 -47.9687 0.222218
751
root 3.96008 16.2881 15.2415 -163.727 0.390885 -171.482
lfemur -37.8437 10.1127 -19.1621
ltibia 53.902 -0 0
lfoot -30.2202 6.23776 -0.519337
ltoes 8.42419 -0 0
rfemur -26.9474 -32.5802 17.2591
rtibia 99.3728 -0 0
rfoot 17.3643 -0.224082 -0.210818
rtoes 24.6298 -0 0
lowerback 3.85953 5.99699 -3.35922
upperback -0.572023 7.83828 -2.43938
thorax -2.82991 3.96368 -1.13879
lowerneck -5.93299 -8.87354 -1.96487
upperneck -2.36084 -11.9548 6.79667
head 0.823833 -6.02014 2.11764
lclavicle 2.08724e-14 -3.73715e-14 0
lhumerus -50.5201 -8.34414 83.4141
lradius 52.7183 -0 0
lwrist 14.0832 0 0
lhand -29.835 -6.03574 0.0113675
lfingers 7.12502 -0 0
lthumb -3.15811 23.9182 0.0110542
rclavicle 2.08724e-14 -3.73715e-14 0
rhumerus 10.4496 48.6132 -81.0238
rradius 92.6231 -0 0
rwrist 3.74224 0 0
rhand -17.2986 -17.4052 0.144034
rfingers 7.12502 -0 0
rthumb 8.94656 -47.1618 0.140985
752
root 3.90144 16.1769 15.4108 -163.691 3.05059 -171.485
lfemur -39.041 11.5934 -20.2055
ltibia 55.9116 -0 0
lfoot -31.9543 7.6279 -0.247871
ltoes 8.51915 -0 0
rfemur -26.7778 -32.6084 18.5885
rtibia 97.3526 -0 0
rfoot 16.1013 -1.50245 -0.126486
rtoes 23.771 -0 0
lowerback 3.99852 5.87481 -3.58431
upperback -0.479821 7.66115 -2.54114
thorax -2.83414 3.87931 -1.12368
lowerneck -5.80843 -8.90923 -2.00641
upperneck -2.37027 -12.0007 6.9639
head 0.815132 -6.04195 2.17941
lclavicle 2.08724e-14 -3.73715e-14 0
lhumerus -50.054 -8.18544 85.1966
lradius 53.2623 -0 0
lwrist 13.7887 0 0
lhand -30.0191 -6.13413 0.0049935
lfingers 7.12502 -0 0
lthumb -3.33589 23.8196 0.00487772
rclavicle 2.08724e-14 -3.73715e-14 0
rhumerus 7.10617 50.0234 -84.3517
rradius 92.4664 -0 0
rwrist 4.40122 0 0
rhand -16.5739 -16.761 0.065654
rfingers 7.12502 -0 0
rthumb 9.64621 -46.5046 0.064266
753
root 3.83704 16.0828 15.5731 -163.633 5.87544 188.567
lfemur -40.0512 12.9328 -21.107
ltibia 57.4571 0 0
lfoot -33.3178 8.9387 0
ltoes 8.81632 0 0
rfemur -26.5178 -32.6719 19.689
rtibia 95.4023 0 0
rfoot 14.8579 -2.79269 0
rtoes 22.6753 0 0
lowerback 4.06962 5.78233 -3.73681
upperback -0.419048 7.52946 -2.63839
thorax -2.82273 3.81613 -1.13976
lowerneck -5.70483 -8.92538 -2.03153
upperneck -2.36576 -12.0187 7.07428
head 0.808463 -6.04843 2.22084
lclavicle -6.40087e-14 5.40694e-14 0
lhumerus -49.7942 -8.06598 86.7245
lradius 53.8848 0 0
lwrist 13.5847 0 0
lhand -30.0559 -6.20926 0
lfingers 7.12502 0 0
lthumb -3.37148 23.7438 0
rclavicle -6.40087e-14 5.40694e-14 0
rhumerus 4.06158 51.158 -87.3363
rradius 92.1791 0 0
rwrist 4.96805 0 0
rhand -15.9957 -16.2889 0
rfingers 7.12502 0 0
rthumb 10.2043 -766.021 0
754
root 3.76548 16.0055 15.7284 -163.557 8.86798 -171.334
lfemur -40.9304 14.2407 -21.9044
ltibia 58.6285 -0 0
lfoot -34.3593 10.2509 0.211182
ltoes 9.40615 -0 0
rfemur -26.151 -32.7702 20.6017
rtibia 93.4476 -0 0
rfoot 13.5727 -4.23238 0.176617
rtoes 21.3174 -0 0
lowerback 4.0759 5.70805 -3.82538
upperback -0.390099 7.4278 -2.73824
thorax -2.79828 3.76665 -1.18906
lowerneck -5.61664 -8.92369 -2.04588
upperneck -2.34587 -12.0101 7.13314
head 0.803973 -6.03982 2.24463
lclavicle -6.40087e-14 5.40694e-14 0
lhumerus -49.6965 -8.00865 88.0115
lradius 54.6206 -0 0
lwrist 13.4739 0 0
lhand -29.9287 -6.26808 -0.0037257
lfingers 7.12502 -0 0
lthumb -3.24867 23.6837 -0.00369649
rclavicle -6.40087e-14 5.40694e-14 0
rhumerus 1.25819 52.067 -89.9581
rradius 91.7454 -0 0
rwrist 5.46539 0 0
rhand -15.5197 -15.9757 -0.0522097
rfingers 7.12502 -0 0
rthumb 10.6638 -45.6968 -0.0511231
755
root 3.68644 15.943 15.8775 -163.467 12.0064 -171.205
lfemur -41.7643 15.6185 -22.6592
ltibia 59.5767 -0 0
lfoot -35.1727 11.6396 0.388625
ltoes 10.3314 -0 0
rfemur -25.6776 -32.8906 21.3946
rtibia 91.4117 -0 0
rfoot 12.1861 -5.94096 0.389319
rtoes 19.7135 -0 0
lowerback 4.03137 5.63652 -3.8687
upperback -0.387987 7.33424 -2.84734
thorax -2.76555 3.72034 -1.26826
lowerneck -5.53589 -8.90811 -2.05685
upperneck -2.31147 -11.9797 7.15383
head 0.801485 -6.01838 2.25625
lclavicle -6.40087e-14 5.40694e-14 0
lhumerus -49.6861 -8.03699 89.1047
lradius 55.4859 -0 0
lwrist 13.4447 0 0
lhand -29.6471 -6.31943 -0.00656337
lfingers 7.12502 -0 0
lthumb -2.97672 23.6305 -0.00657463
rclavicle -6.40087e-14 5.40694e-14 0
rhumerus -1.45401 52.7995 -92.3011
rradius 91.1739 -0 0
rwrist 5.9252 0 0
rhand -15.0864 -15.784 -0.0949932
rfingers 7.12502 -0 0
rthumb 11.0819 -45.4933 -0.0930683
